<?xml version="1.0" encoding="utf-8"?>
<!-- Generator: Adobe Illustrator 19.2.1, SVG Export Plug-In . SVG Version: 6.00 Build 0)  -->
<svg version="1.1" id="Layer_1" xmlns="http://www.w3.org/2000/svg" xmlns:xlink="http://www.w3.org/1999/xlink" x="0px" y="0px"
	 viewBox="0 0 128 128" style="enable-background:new 0 0 128 128;" xml:space="preserve">
<style type="text/css">
	.st0{fill:#FEFEFE;}
</style>
<path class="st0" d="M64.5,70.7c-0.2,2.8-0.8,5.5-1.8,8.1c-0.8,2-1.7,2.7-3.8,2.5c-6.7-0.7-13.2-1.9-19.6-4.1
	c-1.9-0.7-2.9-2.3-3.6-4.1c-1.2-3.1-1.8-6.3-2.5-9.6c-0.8-3.9-1.5-7.8-1.9-11.7c-0.1-1.3-0.2-2.6-0.1-3.9c0.2-3.3,2.1-5.4,5.5-5.7
	c2.8-0.3,5.6-0.1,8.4-0.1c2.3,0,3.3-1,3.3-3.3c0-2.4,0-4.8,0-7.2c0-3.6,1.8-5.9,5.3-6.5c4-0.7,8-0.5,11.9,0.5c2.3,0.6,3.8,2,4.5,4.2
	c0.3,0.9,0.7,1.1,1.5,1c5.9-0.2,11.8,0.4,17.6,1.7c4.3,0.9,5.9,2.6,6.5,6.9c0.8,5.5,1.1,11,1.4,16.5c0.3,5.9,0.6,11.7,0,17.6
	c-0.8,7.3-1.7,14.5-4.3,21.4c-0.1,0.3-0.2,0.5-0.3,0.8c-1.9,5.5-5.7,8.1-11.5,7.9c-3.6-0.2-7.3,0.2-10.8-0.7
	c-3.5-0.8-5.4-2.6-5.9-6.2c-0.4-2.5-0.4-5.1,0.1-7.6c0.7-3.4,2.3-5,5.8-5.6c2-0.3,4-0.2,6-0.2c0.7,0,0.9,0.3,0.7,0.9
	c-0.5,1.3-0.5,2.6-0.2,4c0.1,0.7-0.2,0.8-0.8,0.8c-0.9,0-1.8,0-2.7,0.1c-1.5,0.2-2.2,1.1-2.2,2.7c0,1.9,0.6,3,2.1,3.3
	c2.9,0.5,5.8,0.5,8.7-0.1c1.6-0.3,2.4-1.4,2.6-2.9c0.4-3,0.3-6-0.5-8.9c-0.8-2.8-2.3-4-5.2-4.4c-2.4-0.3-4.8-0.6-7.2-1.1
	c-4.3-0.9-5.7-2.5-6.4-6.9c-0.3-0.5-0.2-1-0.2-1.5C64.7,69.9,64.8,70.3,64.5,70.7z M46.6,27.2c-1.2,3.7-0.4,7.3-0.5,11
	c-0.1,1.8,0,1.8-2,1.8c-1.9,0-3.7,0-5.6,0c-2,0-3.9,0.2-5.1,0.8C37.6,36.5,42.1,31.9,46.6,27.2z M64.5,70.7
	c-0.1-0.9-0.1-1.8,0.2-3.1c0.5,1.3,0.3,2.3,0.3,3.3C64.8,70.9,64.6,70.8,64.5,70.7z M85.7,62.2c0.2,0.8-0.1,0.9-0.9,0.6
	c-2-0.7-4-0.9-6-0.7c-1.3,0.1-1.3-0.4-1-1.4c0.7-2.2,2.2-3.4,4.3-3.2C84.3,57.8,85.6,59.4,85.7,62.2z"/>
</svg>
