<?xml version="1.0" encoding="utf-8"?>
<!-- Generator: Adobe Illustrator 19.2.1, SVG Export Plug-In . SVG Version: 6.00 Build 0)  -->
<svg version="1.1" id="Layer_1" xmlns="http://www.w3.org/2000/svg" xmlns:xlink="http://www.w3.org/1999/xlink" x="0px" y="0px"
	 viewBox="0 0 128 128" style="enable-background:new 0 0 128 128;" xml:space="preserve">
<style type="text/css">
	.st0{fill:#FEFEFE;}
</style>
<path class="st0" d="M39,102.8c0-4.6,0-8.9,0-13.1c0-1-0.2-1.7-1-2.3c-10.4-9-15.2-20.2-12.6-33.8c2.8-14.2,11.8-23.4,25.3-28
	c17.6-6,37,0.7,46.6,15.6c11.5,17.9,4.5,41.4-15.3,51.1c-8.7,4.3-17.9,5.3-27.4,3.2c-1.3-0.3-2.4-0.1-3.6,0.5
	C47.2,98.3,43.3,100.4,39,102.8z M39.3,72.3c5.6-3.1,11.1-6.1,16.6-9.3c1.4-0.8,2.2-0.7,3.3,0.5c2.4,2.7,5.1,5.2,7.5,7.9
	c0.9,1,1.4,1,2.3,0c3.6-4,7.4-7.9,11.1-11.8c2.8-2.9,5.5-5.9,8.4-8.9c-0.9-0.2-1.4,0.4-1.9,0.6c-5.1,2.8-10.2,5.6-15.2,8.4
	c-1.2,0.7-1.9,0.7-2.8-0.4c-2.6-2.8-5.3-5.6-8-8.4c-0.6-0.7-1.1-0.9-1.8-0.1C52.3,58,45.7,65,39.1,72C39.2,72.1,39.3,72.2,39.3,72.3
	z"/>
</svg>
