<?xml version="1.0" encoding="utf-8"?>
<!-- Generator: Adobe Illustrator 19.2.1, SVG Export Plug-In . SVG Version: 6.00 Build 0)  -->
<svg version="1.1" id="Layer_1" xmlns="http://www.w3.org/2000/svg" xmlns:xlink="http://www.w3.org/1999/xlink" x="0px" y="0px"
	 viewBox="0 0 128 128" style="enable-background:new 0 0 128 128;" xml:space="preserve">
<style type="text/css">
	.st0{fill:#FEFEFE;}
	.st1{fill:#F5E7E7;}
	.st2{fill:#E9C9CA;}
</style>
<path class="st0" d="M55.4,76.7c0,7.9,0,15.8,0,23.6c0,0.1-0.1,0.3-0.1,0.4c-0.4,0.3-0.8,0.1-1.3,0.1c-7.2,0-14.3,0-21.5,0
	c-1.1,0-1.5-0.2-1.5-1.4c0-23.5,0-47,0-70.4c0-1.2,0.4-1.4,1.5-1.4c7.1,0,14.2,0,21.3,0c1.7,0,1.9,0.1,1.9,2c0,7,0.1,14.1,0,21.1
	c-0.1,7.8,0,15.7,0,23.5C55.8,75.2,55.8,76,55.4,76.7z"/>
<path class="st1" d="M55.4,76.7c0-15.4,0-30.9,0-46.3c0-2.5,0-2.5-2.5-2.5c-6.7,0-13.4,0-20,0c-1.1,0-1.6,0.2-1.6,1.5
	c0,23.3,0,46.7,0,70c0,1.3,0.4,1.5,1.6,1.5c7.5,0,15,0,22.5,0c-0.3,0.4-0.8,0.2-1.2,0.2c-7.3,0-14.5,0-21.8,0c-1,0-1.4-0.2-1.4-1.3
	c0-23.6,0-47.2,0-70.7c0-1.2,0.4-1.4,1.4-1.4c23.5,0,46.9,0,70.4,0c1.1,0,1.4,0.3,1.4,1.4c0,7.3,0,14.5,0,21.8
	c0,0.9-0.1,1.3-1.1,1.3c-7.7-0.1-15.4,0-23-0.1c-0.8,0.4-1.6,0.4-2.5,0.4c-6.5,0-13,0-19.4,0c-1.9,0-2,0.1-2,2c0,6.5,0,13.1,0,19.6
	c0,0.8,0.1,1.6-0.4,2.3C55.6,76.5,55.5,76.6,55.4,76.7z"/>
<path class="st2" d="M55.7,76.4c0-7.7,0-15.5,0-23.2c0-1,0.3-1.2,1.3-1.2c7.7,0,15.5,0,23.2,0.1c-0.4,0.5-0.3,1.1-0.3,1.7
	c0,7.2,0,14.3,0,21.5c0,0.7,0.1,1.3-1,1.3C71.1,76.5,63.4,76.5,55.7,76.4z"/>
</svg>
