<?xml version="1.0" encoding="utf-8"?>
<!-- Generator: Adobe Illustrator 19.2.1, SVG Export Plug-In . SVG Version: 6.00 Build 0)  -->
<svg version="1.1" id="Layer_1" xmlns="http://www.w3.org/2000/svg" xmlns:xlink="http://www.w3.org/1999/xlink" x="0px" y="0px"
	 viewBox="0 0 128 128" style="enable-background:new 0 0 128 128;" xml:space="preserve">
<style type="text/css">
	.st0{fill:#FFFFFF;}
	.st1{fill:#FEFEFE;}
</style>
<path class="st0" d="M53.8,43c0.1,2.6-1.3,4.3-3.1,5.7c-1,0.8-2,1.5-3,2.3c-2.1,1.9-2.7,4.3-2.1,7c1.1,4.5,3.5,8.2,6.3,11.8
	c4.5,5.7,10.2,9.7,16.8,12.5c3.9,1.7,6.8,0.4,8.8-2.4c3.9-5.7,8.4-6.6,14.2-2.8c4.6,2.9,8.9,6.2,13.1,9.6c2.1,1.7,3.5,3.8,3.3,6.6
	c-0.1,1.5-0.6,2.9-1.3,4.1c-3.3,5.9-8,9.9-14.7,11.2c-2.1,0.4-4.2-0.3-6.1-1.1c-20.7-8.9-38.1-21.8-51.2-40.3
	c-5.5-7.8-10-16.1-13.4-25c-1.7-4.4-2-8.9,0.3-13.2c2.8-5.2,7.5-8,13.2-8.8c2.4-0.3,4.4,0.9,6,2.6c3.9,3.9,7.2,8.2,10,12.9
	c1,1.6,1.8,3.2,2.5,5C53.7,41.6,53.8,42.3,53.8,43z"/>
<path class="st1" d="M107.1,59.9c0,0.7,0.2,1.9,0,3.1c-0.3,1.4-0.9,1.9-2.3,1.9c-1.3,0-2.1-0.7-2.2-2c-0.1-1.7-0.2-3.4-0.5-5.1
	c-1-6.6-2.8-12.9-6.5-18.6c-4.2-6.3-10.1-10.3-17.1-12.7c-4.1-1.4-8.3-2.4-12.6-2.8c-0.3,0-0.6-0.1-0.9-0.1c-1.3-0.3-1.9-0.9-1.8-2
	c0-1.4,0.7-2.3,2-2.4c1.2-0.1,2.5,0,3.7,0c9.9,0.6,18.4,4.6,25.5,11.5c6.6,6.4,10.9,14.1,12.4,23.3C107,55.8,107.2,57.6,107.1,59.9z
	"/>
<path class="st1" d="M96.3,56.3c0,0.9,0,1.6,0,2.3c-0.1,1.5-0.8,2.2-2.3,2.2c-1.3,0-2.1-0.6-2.2-2c-0.2-2.3-0.6-4.6-1.1-6.8
	c-0.4-1.6-0.9-3.1-1.5-4.6c-2.3-5.8-6.8-9.1-12.5-11c-2.4-0.8-4.9-1.5-7.5-1.8c-2.3-0.3-3.1-1.4-2.6-3.2c0.3-1.2,1.1-1.8,2.5-1.7
	c4.7,0.4,9.1,1.4,13.2,3.8c7.1,4.2,11.9,10.2,13.6,18.4C96.3,53.4,96.4,54.9,96.3,56.3z"/>
<path class="st1" d="M86.1,53.9c0,0.5,0,1-0.1,1.6c-0.2,1.2-0.9,1.9-2,2s-2-0.5-2.3-1.7c-0.2-0.8-0.3-1.7-0.5-2.5
	c-1-4.5-3.7-7.1-8.2-7.9c-0.5-0.1-1-0.2-1.4-0.3c-1.3-0.3-1.9-1-1.9-2c0.1-1.3,0.8-2.2,2.1-2.4c1.1-0.2,2.2-0.2,3.2,0
	C80.6,41.7,86,48.1,86.1,53.9z"/>
</svg>
